HIERARCHY
ROOT Hips
{
 OFFSET 0.000000 0.000000 0.000000
 CHANNELS 6 Xposition Yposition Zposition Yrotation Xrotation Zrotation
 JOINT Chest
 {
  OFFSET 0.000000 9.588913 -0.003946
  CHANNELS 3 Yrotation Xrotation Zrotation
  JOINT Chest2
  {
   OFFSET 0.000000 9.541882 0.008053
   CHANNELS 3 Yrotation Xrotation Zrotation
   JOINT Chest3
   {
    OFFSET 0.000000 9.501360 0.000000
    CHANNELS 3 Yrotation Xrotation Zrotation
    JOINT Chest4
    {
     OFFSET 0.000000 9.491660 0.000000
     CHANNELS 3 Yrotation Xrotation Zrotation
     JOINT Neck
     {
      OFFSET 0.000000 14.331917 0.000000
      CHANNELS 3 Yrotation Xrotation Zrotation
      JOINT Head
      {
       OFFSET 0.000000 8.884799 0.017034
       CHANNELS 3 Yrotation Xrotation Zrotation
       End Site
       {
        OFFSET 0.000000 16.896195 0.008993
       }
      }
     }
     JOINT RightCollar
     {
      OFFSET -2.923010 9.499495 0.000000
      CHANNELS 3 Yrotation Xrotation Zrotation
      JOINT RightShoulder
      {
       OFFSET -13.795216 0.000000 0.000000
       CHANNELS 3 Yrotation Xrotation Zrotation
       JOINT RightElbow
       {
        OFFSET -30.272209 0.000000 0.000000
        CHANNELS 3 Yrotation Xrotation Zrotation
        JOINT RightWrist
        {
         OFFSET -24.478199 0.000000 0.000000
         CHANNELS 3 Yrotation Xrotation Zrotation
         End Site
         {
          OFFSET -18.090752 0.000000 0.000000
         }
        }
       }
      }
     }
     JOINT LeftCollar
     {
      OFFSET 2.923010 9.499495 0.000000
      CHANNELS 3 Yrotation Xrotation Zrotation
      JOINT LeftShoulder
      {
       OFFSET 13.795216 0.000000 0.000000
       CHANNELS 3 Yrotation Xrotation Zrotation
       JOINT LeftElbow
       {
        OFFSET 30.272209 0.000000 0.000000
        CHANNELS 3 Yrotation Xrotation Zrotation
        JOINT LeftWrist
        {
         OFFSET 24.478199 0.000000 0.000000
         CHANNELS 3 Yrotation Xrotation Zrotation
         End Site
         {
          OFFSET 18.090752 0.000000 0.000000
         }
        }
       }
      }
     }
    }
   }
  }
 }
 JOINT RightHip
 {
  OFFSET -7.826875 0.019532 0.001973
  CHANNELS 3 Yrotation Xrotation Zrotation
  JOINT RightKnee
  {
   OFFSET 0.000000 -40.546152 -0.001885
   CHANNELS 3 Yrotation Xrotation Zrotation
   JOINT RightAnkle
   {
    OFFSET 0.000000 -39.417092 -0.003189
    CHANNELS 3 Yrotation Xrotation Zrotation
    JOINT RightToe
    {
     OFFSET 0.000000 -7.579396 17.243563
     CHANNELS 3 Yrotation Xrotation Zrotation
     End Site
     {
      OFFSET 0.000000 -1.500329 6.694466
     }
    }
   }
  }
 }
 JOINT LeftHip
 {
  OFFSET 7.826875 0.019532 0.001973
  CHANNELS 3 Yrotation Xrotation Zrotation
  JOINT LeftKnee
  {
   OFFSET 0.000000 -40.546152 -0.001885
   CHANNELS 3 Yrotation Xrotation Zrotation
   JOINT LeftAnkle
   {
    OFFSET 0.000000 -39.417092 -0.003189
    CHANNELS 3 Yrotation Xrotation Zrotation
    JOINT LeftToe
    {
     OFFSET 0.000000 -7.579396 17.243563
     CHANNELS 3 Yrotation Xrotation Zrotation
     End Site
     {
      OFFSET 0.000000 -1.500329 6.694466
     }
    }
   }
  }
 }
}
MOTION
Frames: 9
Frame Time: 0.008333
49.733307 85.771635 -25.793112 78.729609 8.791750 -21.581951 4.739584 9.580605 -4.480181 2.806587 5.463689 -2.175118 3.479482 6.845462 -2.679717 2.806587 5.463689 -2.175118 -12.916766 11.962885 13.491487 -19.280447 -11.700450 19.836098 -1.259424 -1.160668 -5.455948 9.938461 1.072495 86.147509 12.745543 4.486723 10.958304 4.494719 -5.673897 2.717231 2.465185 -24.160919 18.497489 -93.408998 -66.302431 44.047514 -55.534782 -35.939626 3.792615 -41.315019 -5.365870 14.935711 -11.505802 3.022799 -3.515580 1.246192 8.827752 -0.815402 19.288073 32.849555 35.768660 1.811403 -53.169485 -2.387076 -16.055725 -28.854254 27.240353 -17.549512 48.870473 2.334499 -1.428012 -18.003106 -15.956356 -0.397265 -8.856715 5.727287
49.709701 85.783227 -25.843070 78.731570 8.903602 -21.576485 4.746714 9.580592 -4.505546 2.813963 5.463484 -2.169695 3.488796 6.845206 -2.672822 2.813963 5.463484 -2.169695 -12.948136 11.969450 13.505560 -19.326836 -11.686363 19.865933 -1.264195 -1.141672 -5.444319 10.044832 1.006610 86.195764 12.849724 4.421467 11.014826 4.512057 -5.681347 2.765909 2.509252 -24.178189 18.471321 -93.488699 -66.223364 44.095919 -56.450288 -34.404763 4.516870 -42.763425 -4.782528 15.113055 -11.542281 2.944712 -3.511359 1.221528 8.713232 -0.813895 19.255115 32.979508 35.767838 1.808766 -53.172034 -2.319753 -16.075868 -29.001812 27.273384 -17.556386 48.834263 2.258741 -1.473692 -17.952216 -15.860346 -0.396159 -8.846300 5.706195
49.679586 85.793552 -25.891643 78.737946 9.017943 -21.565969 4.748264 9.583763 -4.529772 2.817882 5.464526 -2.166877 3.493738 6.846509 -2.669229 2.817882 5.464526 -2.166877 -12.979859 11.970289 13.516943 -19.373329 -11.679363 19.892918 -1.271028 -1.128005 -5.434877 10.154698 0.937486 86.239858 12.973125 4.366501 11.075310 4.526885 -5.677831 2.827762 2.571848 -24.215510 18.442215 -93.535166 -66.089958 44.145410 -56.877931 -33.011146 5.113961 -43.820394 -4.348247 15.591435 -11.583467 2.853849 -3.515586 1.199214 8.616836 -0.806871 19.230630 33.093407 35.777928 1.814676 -53.171967 -2.275018 -16.103866 -29.150143 27.302393 -17.553985 48.792925 2.194430 -1.524009 -17.898368 -15.758630 -0.392961 -8.833298 5.674062
49.642656 85.801368 -25.940593 78.739457 9.136768 -21.536498 4.745332 9.587185 -4.571340 2.819884 5.465603 -2.166755 3.496240 6.847867 -2.669039 2.819884 5.465603 -2.166755 -13.010404 11.966173 13.526915 -19.418276 -11.678578 19.918113 -1.278053 -1.118266 -5.424195 10.246714 0.869643 86.274735 13.120415 4.340345 11.144780 4.543312 -5.660981 2.902571 2.644698 -24.271357 18.425572 -93.550316 -65.902543 44.210355 -56.821876 -31.978485 5.537856 -44.519806 -4.094755 16.113242 -11.621923 2.744571 -3.540788 1.178279 8.522343 -0.793114 19.208504 33.231170 35.790470 1.837461 -53.186923 -2.239541 -16.122395 -29.312727 27.308872 -17.543604 48.751446 2.142909 -1.579901 -17.837588 -15.657025 -0.388617 -8.823110 5.637882
49.599046 85.808863 -25.982539 78.736259 9.255869 -21.530609 4.743769 9.589992 -4.589221 2.822251 5.465976 -2.167971 3.499182 6.848355 -2.670522 2.822251 5.465976 -2.167971 -13.041364 11.959088 13.534854 -19.463366 -11.681528 19.941066 -1.284520 -1.111447 -5.412682 10.297909 0.808376 86.296148 13.291326 4.350543 11.232964 4.568449 -5.634682 2.984784 2.719210 -24.343684 18.436966 -93.544410 -65.662599 44.286003 -56.343015 -31.447882 5.789994 -44.889552 -3.999495 16.475665 -11.653682 2.625026 -3.548036 1.160545 8.456403 -0.773931 19.209843 33.319372 35.828033 1.857372 -53.187372 -2.242672 -16.152824 -29.477836 27.343498 -17.549102 48.719785 2.092780 -1.627331 -17.774318 -15.572161 -0.386131 -8.818763 5.604893
49.550015 85.814793 -26.019485 78.720322 9.369559 -21.533007 4.748275 9.592252 -4.598614 2.827940 5.466063 -2.168486 3.506292 6.848498 -2.671080 2.827940 5.466063 -2.168486 -13.077716 11.950591 13.538078 -19.514094 -11.686052 19.959858 -1.293152 -1.107576 -5.403294 10.295805 0.763772 86.300696 13.485712 4.388006 11.343798 4.610497 -5.608617 3.068794 2.783638 -24.425152 18.474681 -93.505534 -65.369596 44.339600 -55.505845 -31.377637 5.921716 -44.974318 -3.992882 16.661947 -11.670225 2.501093 -3.553548 1.145512 8.396773 -0.747135 19.230239 33.396538 35.877769 1.884095 -53.189197 -2.270946 -16.173153 -29.649438 27.384245 -17.567315 48.699841 2.047053 -1.670726 -17.707218 -15.508152 -0.385894 -8.823065 5.582114
49.496445 85.819193 -26.050682 78.689738 9.475086 -21.546827 4.763140 9.595301 -4.597196 2.838943 5.466424 -2.166039 3.520098 6.848993 -2.667849 2.838944 5.466424 -2.166040 -13.122950 11.940082 13.533835 -19.574180 -11.692762 19.972158 -1.307571 -1.106324 -5.395129 10.249967 0.738000 86.288479 13.695631 4.423613 11.472391 4.677671 -5.590911 3.145766 2.828291 -24.506734 18.528422 -93.441639 -65.052280 44.353109 -54.356047 -31.587571 5.984268 -44.839569 -4.029050 16.770346 -11.667426 2.377619 -3.553953 1.131651 8.339255 -0.714132 19.270405 33.466345 35.943838 1.920283 -53.194109 -2.327359 -16.179235 -29.826750 27.436681 -17.585987 48.691749 2.010338 -1.721900 -17.637954 -15.468047 -0.388175 -8.835300 5.575490
49.439245 85.821995 -26.076120 78.646930 9.572041 -21.571209 4.788257 9.599454 -4.585566 2.855526 5.467093 -2.158920 3.540954 6.849868 -2.658684 2.855527 5.467094 -2.158920 -13.177253 11.928107 13.518440 -19.642458 -11.701499 19.973023 -1.324903 -1.108332 -5.387982 10.190233 0.727528 86.262957 13.901658 4.414493 11.608252 4.771377 -5.587394 3.206925 2.853655 -24.579148 18.584827 -93.397407 -64.760191 44.348718 -52.941883 -31.908457 6.004735 -44.525695 -4.095662 16.860933 -11.648702 2.255683 -3.549066 1.118989 8.285510 -0.676996 19.330131 33.528171 36.027610 1.970566 -53.202365 -2.415297 -16.172348 -30.010277 27.501691 -17.603051 48.696756 1.980726 -1.784933 -17.565629 -15.452446 -0.392621 -8.857081 5.588078
49.379921 85.822945 -26.096291 78.599784 9.658635 -21.601505 4.819218 9.604436 -4.565312 2.875675 5.468201 -2.146347 3.566354 6.851269 -2.642638 2.875676 5.468202 -2.146348 -13.237097 11.916930 13.488422 -19.712675 -11.710571 19.956233 -1.337246 -1.114911 -5.383282 10.152757 0.730348 86.226595 14.085450 4.323292 11.738125 4.884777 -5.607157 3.251591 2.860517 -24.641979 18.630976 -93.398771 -64.532061 44.352900 -51.292851 -32.236176 5.976367 -44.060593 -4.168685 16.925594 -11.624072 2.140724 -3.543008 1.108522 8.235568 -0.637278 19.408785 33.579527 36.129707 2.038956 -53.212224 -2.537622 -16.158295 -30.196602 27.573284 -17.623081 48.716962 1.954064 -1.855755 -17.488276 -15.457876 -0.398965 -8.891241 5.617318
